<?xml version="1.0" encoding="UTF-8"?>
<svg xmlns="http://www.w3.org/2000/svg" xmlns:xlink="http://www.w3.org/1999/xlink" width="24pt" height="17pt" viewBox="0 0 24 17" version="1.1">
<g id="surface1">
<path style=" stroke:none;fill-rule:nonzero;fill:rgb(0%,0%,0%);fill-opacity:1;" d="M 11.820312 0.347656 L 11.339844 0.414062 L 11.820312 0.507812 C 13.09375 0.761719 16.621094 1.523438 16.667969 1.570312 C 16.691406 1.59375 16.429688 2.273438 16.066406 3.070312 C 15.648438 4.03125 15.347656 4.5625 15.214844 4.597656 C 15.097656 4.621094 15 4.710938 15 4.792969 C 15 4.875 14.941406 4.964844 14.855469 4.988281 C 14.734375 5.035156 14.617188 5.542969 14.722656 5.542969 C 14.746094 5.542969 15.035156 5.417969 15.359375 5.253906 C 15.695312 5.09375 15.960938 5 15.960938 5.035156 C 15.960938 5.082031 16.03125 5.058594 16.117188 5 C 16.1875 4.929688 17.136719 4.585938 18.214844 4.214844 C 19.980469 3.601562 20.160156 3.523438 20.160156 3.28125 C 20.160156 2.933594 20.472656 2.910156 20.554688 3.257812 C 20.605469 3.394531 20.664062 3.488281 20.699219 3.441406 C 20.832031 3.316406 20.484375 2.761719 20.304688 2.828125 C 20.207031 2.863281 20.050781 2.792969 19.96875 2.691406 C 19.8125 2.507812 19.800781 2.519531 19.871094 2.828125 C 19.921875 3.015625 19.957031 3.222656 19.96875 3.28125 C 19.980469 3.417969 19.199219 3.800781 18.707031 3.890625 C 18.421875 3.9375 18.359375 3.914062 18.347656 3.742188 C 18.347656 3.582031 18.3125 3.601562 18.226562 3.824219 C 18.144531 4.03125 17.964844 4.167969 17.628906 4.261719 C 17.351562 4.34375 17.050781 4.433594 16.957031 4.46875 C 16.824219 4.515625 16.789062 4.46875 16.824219 4.238281 C 16.835938 4.078125 16.835938 3.9375 16.800781 3.949219 C 16.765625 3.960938 16.621094 3.902344 16.476562 3.835938 C 16.234375 3.707031 16.210938 3.742188 16.007812 4.273438 C 15.863281 4.664062 15.757812 4.804688 15.695312 4.699219 C 15.625 4.5625 16.152344 3.1875 16.714844 2.078125 C 16.894531 1.730469 17.785156 1.269531 18.300781 1.257812 C 18.601562 1.257812 18.625 1.234375 18.421875 1.167969 C 18.289062 1.121094 17.988281 1.121094 17.761719 1.191406 C 17.28125 1.316406 16.546875 1.339844 16.367188 1.246094 C 16.308594 1.210938 15.972656 1.144531 15.613281 1.109375 C 14.617188 1.003906 14.734375 0.925781 15.875 0.925781 C 16.453125 0.925781 16.921875 0.890625 16.921875 0.832031 C 16.921875 0.785156 16.246094 0.761719 15.421875 0.773438 C 14.542969 0.796875 13.921875 0.761719 13.921875 0.691406 C 13.921875 0.636719 14.207031 0.566406 14.554688 0.542969 C 15.046875 0.507812 14.988281 0.496094 14.21875 0.472656 C 13.691406 0.460938 13.042969 0.414062 12.78125 0.371094 C 12.515625 0.324219 12.085938 0.3125 11.820312 0.347656 Z M 11.820312 0.347656 "/>
<path style=" stroke:none;fill-rule:nonzero;fill:rgb(0%,0%,0%);fill-opacity:1;" d="M 15.335938 0.542969 C 15.421875 0.578125 15.527344 0.566406 15.5625 0.53125 C 15.613281 0.496094 15.539062 0.460938 15.40625 0.472656 C 15.277344 0.472656 15.238281 0.507812 15.335938 0.542969 Z M 15.335938 0.542969 "/>
<path style=" stroke:none;fill-rule:nonzero;fill:rgb(0%,0%,0%);fill-opacity:1;" d="M 18.121094 1.570312 C 18.121094 1.699219 18.179688 1.730469 18.3125 1.6875 C 18.421875 1.652344 18.589844 1.617188 18.695312 1.617188 C 18.875 1.617188 18.875 1.59375 18.71875 1.5 C 18.445312 1.328125 18.121094 1.363281 18.121094 1.570312 Z M 18.121094 1.570312 "/>
<path style=" stroke:none;fill-rule:nonzero;fill:rgb(0%,0%,0%);fill-opacity:1;" d="M 17.304688 1.800781 C 17.160156 1.894531 16.933594 2.195312 16.789062 2.460938 C 16.644531 2.761719 16.621094 2.851562 16.738281 2.714844 C 17.160156 2.195312 17.542969 1.847656 17.710938 1.847656 C 17.808594 1.847656 17.878906 1.789062 17.878906 1.730469 C 17.878906 1.558594 17.617188 1.59375 17.304688 1.800781 Z M 17.304688 1.800781 "/>
<path style=" stroke:none;fill-rule:nonzero;fill:rgb(0%,0%,0%);fill-opacity:1;" d="M 8.316406 1.929688 C 8.230469 1.953125 8.160156 2.054688 8.160156 2.148438 C 8.160156 2.34375 7.390625 2.839844 6.910156 2.957031 C 6.636719 3.027344 6.601562 3.050781 6.769531 3.140625 C 7.03125 3.28125 7.585938 2.980469 8.207031 2.355469 C 8.675781 1.894531 8.699219 1.765625 8.316406 1.929688 Z M 8.316406 1.929688 "/>
<path style=" stroke:none;fill-rule:nonzero;fill:rgb(0%,0%,0%);fill-opacity:1;" d="M 20.675781 2.160156 C 20.664062 2.378906 20.6875 2.414062 20.773438 2.296875 C 20.902344 2.101562 20.914062 1.847656 20.796875 1.847656 C 20.734375 1.847656 20.6875 1.988281 20.675781 2.160156 Z M 20.675781 2.160156 "/>
<path style=" stroke:none;fill-rule:nonzero;fill:rgb(0%,0%,0%);fill-opacity:1;" d="M 18.011719 2.148438 C 18.011719 2.273438 18.046875 2.308594 18.085938 2.21875 C 18.121094 2.136719 18.109375 2.03125 18.070312 1.996094 C 18.035156 1.953125 18 2.019531 18.011719 2.148438 Z M 18.011719 2.148438 "/>
<path style=" stroke:none;fill-rule:nonzero;fill:rgb(0%,0%,0%);fill-opacity:1;" d="M 18.960938 2.34375 C 18.960938 2.585938 18.875 2.96875 18.78125 3.199219 C 18.683594 3.429688 18.613281 3.636719 18.636719 3.660156 C 18.671875 3.683594 18.839844 3.648438 19.019531 3.582031 C 19.34375 3.464844 19.355469 3.441406 19.285156 2.804688 C 19.199219 2.03125 18.960938 1.6875 18.960938 2.34375 Z M 18.960938 2.34375 "/>
<path style=" stroke:none;fill-rule:nonzero;fill:rgb(0%,0%,0%);fill-opacity:1;" d="M 17.710938 2.519531 C 17.664062 2.65625 17.484375 2.933594 17.316406 3.128906 C 17.089844 3.394531 17.039062 3.511719 17.148438 3.613281 C 17.21875 3.683594 17.28125 3.835938 17.28125 3.9375 C 17.28125 4.113281 17.328125 4.121094 17.640625 4.007812 C 18.035156 3.867188 18.058594 3.742188 17.890625 2.773438 C 17.820312 2.332031 17.796875 2.296875 17.710938 2.519531 Z M 17.710938 2.519531 "/>
<path style=" stroke:none;fill-rule:nonzero;fill:rgb(0%,0%,0%);fill-opacity:1;" d="M 18.15625 2.945312 C 18.15625 3.199219 18.179688 3.292969 18.203125 3.140625 C 18.226562 3.003906 18.226562 2.792969 18.203125 2.679688 C 18.167969 2.574219 18.144531 2.691406 18.15625 2.945312 Z M 18.15625 2.945312 "/>
<path style=" stroke:none;fill-rule:nonzero;fill:rgb(0%,0%,0%);fill-opacity:1;" d="M 18.492188 2.839844 C 18.492188 2.96875 18.527344 3.003906 18.5625 2.910156 C 18.601562 2.828125 18.589844 2.726562 18.550781 2.691406 C 18.515625 2.644531 18.480469 2.714844 18.492188 2.839844 Z M 18.492188 2.839844 "/>
<path style=" stroke:none;fill-rule:nonzero;fill:rgb(0%,0%,0%);fill-opacity:1;" d="M 6.875 3.382812 C 5.699219 3.984375 5.003906 4.480469 5.113281 4.644531 C 5.242188 4.839844 6.359375 5.277344 7.753906 5.660156 C 9.46875 6.144531 10.007812 6.191406 10.453125 5.878906 C 10.644531 5.75 11.183594 5.460938 11.664062 5.242188 C 12.144531 5.023438 12.40625 4.875 12.238281 4.917969 C 12.070312 4.953125 11.484375 5.207031 10.921875 5.460938 C 9.671875 6.039062 9.601562 6.0625 9.898438 5.832031 C 10.273438 5.53125 11.195312 5.105469 12.277344 4.722656 C 12.816406 4.527344 13.296875 4.332031 13.355469 4.285156 C 13.453125 4.191406 8.605469 2.886719 8.148438 2.886719 C 7.992188 2.886719 7.414062 3.117188 6.875 3.382812 Z M 8.292969 3.949219 C 8.554688 4.019531 8.761719 4.113281 8.761719 4.15625 C 8.761719 4.191406 8.578125 4.308594 8.363281 4.410156 C 8.027344 4.574219 7.90625 4.574219 7.585938 4.433594 C 7.222656 4.296875 7.09375 4.066406 7.285156 3.890625 C 7.402344 3.777344 7.777344 3.800781 8.292969 3.949219 Z M 9.949219 4.410156 C 10.285156 4.480469 10.558594 4.574219 10.558594 4.621094 C 10.558594 4.734375 9.757812 4.953125 9.515625 4.910156 C 9.394531 4.886719 9.097656 4.828125 8.855469 4.792969 C 8.339844 4.710938 8.28125 4.597656 8.675781 4.410156 C 9.023438 4.25 9.226562 4.25 9.949219 4.410156 Z M 9.949219 4.410156 "/>
<path style=" stroke:none;fill-rule:nonzero;fill:rgb(0%,0%,0%);fill-opacity:1;" d="M 6.132812 3.222656 C 6.046875 3.28125 6 3.371094 6.046875 3.441406 C 6.085938 3.511719 6.011719 3.601562 5.867188 3.636719 C 5.734375 3.683594 5.652344 3.742188 5.675781 3.777344 C 5.710938 3.800781 5.902344 3.742188 6.109375 3.648438 C 6.347656 3.523438 6.445312 3.40625 6.40625 3.292969 C 6.324219 3.09375 6.347656 3.09375 6.132812 3.222656 Z M 6.132812 3.222656 "/>
<path style=" stroke:none;fill-rule:nonzero;fill:rgb(0%,0%,0%);fill-opacity:1;" d="M 4.570312 3.972656 C 4.476562 4.089844 4.476562 4.15625 4.585938 4.238281 C 4.921875 4.492188 5.015625 4.480469 5.28125 4.214844 C 5.53125 3.960938 5.53125 3.949219 5.304688 4.007812 C 5.171875 4.03125 5.027344 4.007812 4.992188 3.9375 C 4.871094 3.765625 4.738281 3.777344 4.570312 3.972656 Z M 4.570312 3.972656 "/>
<path style=" stroke:none;fill-rule:nonzero;fill:rgb(0%,0%,0%);fill-opacity:1;" d="M 19.8125 5.242188 C 19.703125 5.359375 18.839844 5.683594 18.480469 5.714844 C 18.445312 5.714844 18.3125 5.785156 18.167969 5.855469 C 18.035156 5.9375 17.496094 6.15625 16.980469 6.351562 C 16.246094 6.628906 16.019531 6.675781 15.949219 6.558594 C 15.875 6.457031 15.839844 6.492188 15.839844 6.6875 C 15.839844 6.847656 15.898438 6.929688 15.996094 6.894531 C 16.066406 6.871094 16.800781 6.570312 17.59375 6.246094 C 19.378906 5.53125 19.464844 5.519531 19.285156 6.0625 C 19.210938 6.28125 19.105469 6.46875 19.03125 6.46875 C 18.960938 6.46875 18.984375 6.511719 19.078125 6.582031 C 19.308594 6.722656 19.320312 6.710938 18 7.253906 C 17.375 7.507812 16.546875 7.839844 16.175781 8.015625 C 15.515625 8.304688 15.3125 8.292969 15.625 7.992188 C 15.730469 7.886719 15.730469 7.851562 15.625 7.851562 C 15.550781 7.851562 15.394531 7.679688 15.289062 7.472656 C 15.023438 6.988281 15.058594 7.011719 14.578125 6.976562 C 14.257812 6.941406 14.113281 7.011719 13.871094 7.289062 C 13.691406 7.484375 13.558594 7.691406 13.558594 7.75 C 13.558594 7.808594 13.453125 7.851562 13.320312 7.851562 C 13.199219 7.851562 13.03125 7.957031 12.960938 8.085938 C 12.851562 8.28125 12.707031 8.316406 11.964844 8.316406 C 11.015625 8.316406 10.558594 8.394531 10.558594 8.570312 C 10.558594 8.628906 10.667969 8.648438 10.789062 8.605469 C 10.992188 8.546875 11.050781 8.617188 11.160156 8.996094 C 11.292969 9.492188 11.542969 9.644531 12.035156 9.515625 C 12.226562 9.480469 12.335938 9.378906 12.324219 9.25 C 12.3125 9.03125 12 8.960938 12 9.167969 C 12 9.238281 11.941406 9.214844 11.878906 9.125 C 11.785156 8.984375 11.761719 8.984375 11.761719 9.113281 C 11.761719 9.203125 11.734375 9.25 11.699219 9.214844 C 11.664062 9.179688 11.6875 9.019531 11.773438 8.871094 C 11.890625 8.59375 12.347656 8.488281 12.550781 8.695312 C 12.601562 8.742188 12.730469 8.617188 12.851562 8.429688 C 12.984375 8.234375 13.175781 8.085938 13.308594 8.085938 C 13.429688 8.085938 13.621094 7.957031 13.714844 7.820312 C 13.824219 7.667969 14.074219 7.472656 14.28125 7.390625 C 14.628906 7.253906 14.675781 7.265625 14.914062 7.496094 C 15.132812 7.691406 15.179688 7.875 15.179688 8.429688 C 15.167969 8.871094 15.203125 9.054688 15.277344 8.949219 C 15.324219 8.847656 16.117188 8.417969 17.015625 7.980469 C 18.625 7.21875 18.660156 7.207031 18.875 7.414062 C 18.996094 7.542969 19.175781 7.609375 19.273438 7.574219 C 19.367188 7.542969 19.441406 7.566406 19.441406 7.621094 C 19.441406 8.015625 19.945312 7.472656 20.089844 6.929688 C 20.171875 6.652344 20.160156 6.652344 19.980469 6.953125 C 19.726562 7.378906 19.585938 7.355469 19.5 6.894531 C 19.429688 6.523438 19.667969 5.660156 19.945312 5.347656 C 20.015625 5.265625 20.050781 5.164062 20.015625 5.140625 C 19.980469 5.105469 19.894531 5.152344 19.8125 5.242188 Z M 14.941406 7.160156 C 14.976562 7.21875 14.953125 7.277344 14.890625 7.277344 C 14.820312 7.277344 14.761719 7.21875 14.761719 7.160156 C 14.761719 7.089844 14.785156 7.042969 14.808594 7.042969 C 14.84375 7.042969 14.902344 7.089844 14.941406 7.160156 Z M 14.941406 7.160156 "/>
<path style=" stroke:none;fill-rule:nonzero;fill:rgb(0%,0%,0%);fill-opacity:1;" d="M 20.027344 5.382812 C 19.894531 5.53125 19.894531 5.589844 20.015625 5.625 C 20.101562 5.660156 20.160156 5.878906 20.171875 6.15625 C 20.171875 6.535156 20.195312 6.59375 20.28125 6.410156 C 20.410156 6.109375 20.425781 5.53125 20.292969 5.335938 C 20.21875 5.21875 20.160156 5.230469 20.027344 5.382812 Z M 20.027344 5.382812 "/>
<path style=" stroke:none;fill-rule:nonzero;fill:rgb(0%,0%,0%);fill-opacity:1;" d="M 5.039062 5.449219 C 5.039062 5.53125 5.003906 5.707031 4.96875 5.84375 C 4.921875 6.027344 4.980469 6.097656 5.316406 6.203125 C 5.628906 6.292969 5.722656 6.28125 5.722656 6.179688 C 5.722656 6.085938 5.640625 6.050781 5.53125 6.097656 C 5.375 6.144531 5.363281 6.132812 5.472656 5.992188 C 5.640625 5.773438 5.617188 5.554688 5.398438 5.429688 C 5.148438 5.277344 5.039062 5.289062 5.039062 5.449219 Z M 5.039062 5.449219 "/>
<path style=" stroke:none;fill-rule:nonzero;fill:rgb(0%,0%,0%);fill-opacity:1;" d="M 4.078125 5.53125 C 4.078125 5.589844 4.140625 5.683594 4.199219 5.714844 C 4.273438 5.75 4.320312 5.738281 4.320312 5.671875 C 4.320312 5.613281 4.273438 5.519531 4.199219 5.484375 C 4.140625 5.449219 4.078125 5.460938 4.078125 5.53125 Z M 4.078125 5.53125 "/>
<path style=" stroke:none;fill-rule:nonzero;fill:rgb(0%,0%,0%);fill-opacity:1;" d="M 3.433594 5.714844 C 3.371094 5.867188 3.527344 6.351562 3.636719 6.351562 C 3.648438 6.351562 3.660156 6.203125 3.660156 6.015625 C 3.660156 5.613281 3.539062 5.460938 3.433594 5.714844 Z M 3.433594 5.714844 "/>
<path style=" stroke:none;fill-rule:nonzero;fill:rgb(0%,0%,0%);fill-opacity:1;" d="M 4.273438 6.191406 C 4.164062 6.28125 4.078125 6.421875 4.078125 6.480469 C 4.078125 6.546875 4.007812 6.558594 3.9375 6.511719 C 3.828125 6.445312 3.828125 6.480469 3.949219 6.617188 C 4.042969 6.734375 4.078125 6.929688 4.03125 7.113281 C 3.984375 7.289062 3.996094 7.460938 4.066406 7.496094 C 4.140625 7.542969 4.152344 7.632812 4.078125 7.738281 C 3.984375 7.886719 3.960938 7.875 3.960938 7.703125 C 3.960938 7.597656 3.875 7.507812 3.78125 7.507812 C 3.683594 7.507812 3.601562 7.449219 3.601562 7.378906 C 3.601562 7.320312 3.671875 7.300781 3.757812 7.34375 C 3.828125 7.390625 3.792969 7.308594 3.660156 7.148438 C 3.527344 7 3.394531 6.847656 3.371094 6.8125 C 3.347656 6.777344 3.359375 6.871094 3.394531 7.011719 C 3.433594 7.160156 3.40625 7.277344 3.347656 7.277344 C 3.085938 7.277344 3.648438 7.980469 4.117188 8.246094 C 4.957031 8.707031 7.777344 9.699219 8.746094 9.875 C 10.488281 10.1875 11.171875 10.242188 11.84375 10.140625 C 12.394531 10.058594 12.550781 10.070312 12.730469 10.230469 C 12.851562 10.335938 13.054688 10.394531 13.175781 10.371094 C 13.308594 10.335938 13.5 10.359375 13.609375 10.417969 C 13.753906 10.496094 13.933594 10.488281 14.171875 10.394531 C 14.640625 10.199219 14.617188 10.046875 14.125 10.128906 C 13.667969 10.199219 13.535156 10.082031 13.261719 9.402344 L 13.078125 8.949219 L 13.140625 9.433594 C 13.175781 9.699219 13.234375 10 13.285156 10.117188 C 13.332031 10.253906 13.320312 10.289062 13.222656 10.230469 C 13.140625 10.1875 13.078125 10.023438 13.078125 9.863281 C 13.078125 9.480469 12.898438 9.433594 12.15625 9.621094 C 11.808594 9.710938 11.519531 9.746094 11.519531 9.699219 C 11.519531 9.667969 10.945312 9.5625 10.234375 9.480469 C 9.515625 9.390625 9.023438 9.296875 9.144531 9.25 C 9.3125 9.191406 9.324219 9.136719 9.191406 8.753906 C 9.085938 8.453125 9.070312 8.351562 9.167969 8.382812 C 9.238281 8.40625 9.40625 8.363281 9.539062 8.257812 C 9.769531 8.085938 9.769531 8.085938 9.433594 8.152344 C 9.203125 8.210938 9.109375 8.1875 9.15625 8.117188 C 9.203125 8.050781 9.132812 7.96875 9 7.933594 C 8.664062 7.851562 8.699219 7.4375 9.070312 6.964844 C 9.238281 6.757812 9.324219 6.582031 9.253906 6.582031 C 9.179688 6.582031 9.085938 6.652344 9.035156 6.746094 C 8.988281 6.835938 8.734375 7.113281 8.496094 7.378906 C 7.992188 7.886719 7.90625 8.199219 8.269531 8.199219 C 8.542969 8.199219 8.640625 8.328125 8.761719 8.847656 C 8.832031 9.125 8.808594 9.238281 8.6875 9.285156 C 8.519531 9.34375 6.648438 8.765625 5.519531 8.316406 C 4.738281 7.992188 4.175781 7.621094 4.488281 7.621094 C 4.644531 7.621094 4.679688 7.507812 4.65625 7.035156 C 4.644531 6.710938 4.585938 6.421875 4.535156 6.398438 C 4.488281 6.363281 4.476562 6.269531 4.523438 6.179688 C 4.609375 5.960938 4.5 5.960938 4.273438 6.191406 Z M 4.273438 6.191406 "/>
<path style=" stroke:none;fill-rule:nonzero;fill:rgb(0%,0%,0%);fill-opacity:1;" d="M 14.578125 6.238281 C 14.316406 6.363281 14.230469 6.433594 14.398438 6.398438 C 14.746094 6.304688 15.359375 6.015625 15.179688 6.015625 C 15.121094 6.015625 14.84375 6.109375 14.578125 6.238281 Z M 14.578125 6.238281 "/>
<path style=" stroke:none;fill-rule:nonzero;fill:rgb(0%,0%,0%);fill-opacity:1;" d="M 12.589844 6.203125 C 12.574219 6.257812 12.574219 6.328125 12.574219 6.363281 C 12.589844 6.410156 12.503906 6.433594 12.382812 6.421875 C 12.277344 6.421875 12.179688 6.480469 12.191406 6.546875 C 12.203125 6.628906 12.214844 6.824219 12.226562 6.976562 C 12.238281 7.207031 12.3125 7.253906 12.71875 7.300781 C 12.984375 7.320312 13.199219 7.300781 13.199219 7.265625 C 13.199219 7.21875 13.234375 7.101562 13.273438 7 C 13.320312 6.859375 13.273438 6.8125 13.09375 6.8125 C 12.742188 6.8125 12.78125 6.652344 13.175781 6.351562 C 13.402344 6.179688 13.429688 6.144531 13.234375 6.226562 C 13.066406 6.304688 12.949219 6.316406 12.898438 6.238281 C 12.816406 6.097656 12.613281 6.085938 12.589844 6.203125 Z M 12.589844 6.203125 "/>
<path style=" stroke:none;fill-rule:nonzero;fill:rgb(0%,0%,0%);fill-opacity:1;" d="M 7.800781 6.457031 C 7.644531 6.605469 7.65625 6.617188 7.835938 6.546875 C 7.945312 6.511719 8.039062 6.523438 8.039062 6.582031 C 8.039062 6.652344 7.992188 6.699219 7.921875 6.699219 C 7.859375 6.699219 7.800781 6.777344 7.800781 6.871094 C 7.800781 6.964844 7.847656 7.042969 7.90625 7.042969 C 7.96875 7.042969 8.101562 7.066406 8.183594 7.101562 C 8.28125 7.136719 8.460938 7.023438 8.605469 6.824219 L 8.867188 6.492188 L 8.425781 6.386719 C 8.0625 6.292969 7.933594 6.304688 7.800781 6.457031 Z M 7.800781 6.457031 "/>
<path style=" stroke:none;fill-rule:nonzero;fill:rgb(0%,0%,0%);fill-opacity:1;" d="M 9.71875 6.699219 C 9.71875 6.769531 9.769531 6.800781 9.828125 6.769531 C 9.875 6.734375 10.03125 6.777344 10.152344 6.871094 C 10.378906 7.042969 10.378906 7.042969 10.152344 7.21875 C 9.839844 7.449219 9.707031 7.4375 9.636719 7.160156 C 9.550781 6.871094 9.457031 6.871094 9.277344 7.148438 C 9.144531 7.34375 9.179688 7.378906 9.574219 7.4375 C 9.816406 7.484375 10.164062 7.542969 10.34375 7.574219 C 10.644531 7.632812 10.65625 7.609375 10.644531 7.171875 C 10.621094 6.769531 10.585938 6.699219 10.355469 6.699219 C 10.210938 6.699219 10.019531 6.664062 9.910156 6.628906 C 9.804688 6.59375 9.71875 6.617188 9.71875 6.699219 Z M 9.71875 6.699219 "/>
<path style=" stroke:none;fill-rule:nonzero;fill:rgb(0%,0%,0%);fill-opacity:1;" d="M 11.398438 6.917969 C 11.398438 7.042969 11.363281 7.21875 11.328125 7.320312 C 11.269531 7.460938 11.328125 7.507812 11.566406 7.507812 C 11.878906 7.507812 11.988281 7.355469 11.761719 7.21875 C 11.699219 7.183594 11.640625 7.042969 11.640625 6.917969 C 11.640625 6.800781 11.59375 6.699219 11.519531 6.699219 C 11.460938 6.699219 11.398438 6.800781 11.398438 6.917969 Z M 11.398438 6.917969 "/>
<path style=" stroke:none;fill-rule:nonzero;fill:rgb(0%,0%,0%);fill-opacity:1;" d="M 18.238281 6.8125 C 18.144531 6.871094 18.121094 6.929688 18.179688 6.929688 C 18.253906 6.929688 18.382812 6.871094 18.480469 6.8125 C 18.574219 6.757812 18.613281 6.699219 18.539062 6.699219 C 18.480469 6.699219 18.335938 6.757812 18.238281 6.8125 Z M 18.238281 6.8125 "/>
<path style=" stroke:none;fill-rule:nonzero;fill:rgb(0%,0%,0%);fill-opacity:1;" d="M 5.039062 6.917969 C 5.039062 6.988281 5.089844 7.054688 5.136719 7.089844 C 5.195312 7.125 5.242188 7.078125 5.242188 6.988281 C 5.242188 6.894531 5.195312 6.8125 5.136719 6.8125 C 5.089844 6.8125 5.039062 6.859375 5.039062 6.917969 Z M 5.039062 6.917969 "/>
<path style=" stroke:none;fill-rule:nonzero;fill:rgb(0%,0%,0%);fill-opacity:1;" d="M 5.519531 7.042969 C 5.519531 7.101562 5.605469 7.160156 5.710938 7.160156 C 5.808594 7.160156 5.855469 7.101562 5.820312 7.042969 C 5.785156 6.976562 5.699219 6.929688 5.628906 6.929688 C 5.566406 6.929688 5.519531 6.976562 5.519531 7.042969 Z M 5.519531 7.042969 "/>
<path style=" stroke:none;fill-rule:nonzero;fill:rgb(0%,0%,0%);fill-opacity:1;" d="M 6 7.277344 C 6 7.402344 6.058594 7.507812 6.121094 7.507812 C 6.191406 7.507812 6.238281 7.402344 6.238281 7.277344 C 6.238281 7.148438 6.191406 7.042969 6.121094 7.042969 C 6.058594 7.042969 6 7.148438 6 7.277344 Z M 6 7.277344 "/>
<path style=" stroke:none;fill-rule:nonzero;fill:rgb(0%,0%,0%);fill-opacity:1;" d="M 6.601562 7.566406 C 6.683594 7.65625 6.792969 7.703125 6.851562 7.667969 C 7.007812 7.574219 6.863281 7.390625 6.636719 7.390625 C 6.480469 7.390625 6.480469 7.425781 6.601562 7.566406 Z M 6.601562 7.566406 "/>
<path style=" stroke:none;fill-rule:nonzero;fill:rgb(0%,0%,0%);fill-opacity:1;" d="M 7.378906 7.738281 C 7.414062 7.796875 7.535156 7.851562 7.632812 7.851562 C 7.726562 7.851562 7.777344 7.796875 7.738281 7.738281 C 7.703125 7.667969 7.585938 7.621094 7.488281 7.621094 C 7.390625 7.621094 7.34375 7.667969 7.378906 7.738281 Z M 7.378906 7.738281 "/>
<path style=" stroke:none;fill-rule:nonzero;fill:rgb(0%,0%,0%);fill-opacity:1;" d="M 14.074219 8.523438 C 13.894531 8.800781 14.101562 9.191406 14.328125 9.007812 C 14.507812 8.871094 14.519531 8.40625 14.339844 8.351562 C 14.269531 8.328125 14.160156 8.40625 14.074219 8.523438 Z M 14.074219 8.523438 "/>
<path style=" stroke:none;fill-rule:nonzero;fill:rgb(0%,0%,0%);fill-opacity:1;" d="M 16.726562 13.039062 C 16.585938 13.097656 16.355469 13.292969 16.199219 13.476562 C 15.839844 13.929688 15.925781 14.714844 16.378906 15.09375 C 16.882812 15.523438 18.121094 15.40625 18.121094 14.945312 C 18.121094 14.804688 18.058594 14.78125 17.914062 14.839844 C 17.796875 14.898438 17.53125 14.957031 17.316406 14.992188 C 16.476562 15.105469 16.117188 13.984375 16.835938 13.476562 C 17.125 13.257812 17.207031 13.246094 17.59375 13.386719 C 17.867188 13.476562 18.070312 13.488281 18.132812 13.429688 C 18.433594 13.144531 17.257812 12.820312 16.726562 13.039062 Z M 16.726562 13.039062 "/>
<path style=" stroke:none;fill-rule:nonzero;fill:rgb(0%,0%,0%);fill-opacity:1;" d="M 0.601562 14.207031 C 0.601562 15.277344 0.613281 15.359375 0.839844 15.359375 C 1.03125 15.359375 1.078125 15.277344 1.078125 14.957031 C 1.078125 14.632812 1.128906 14.550781 1.308594 14.550781 C 1.441406 14.550781 1.691406 14.738281 1.871094 14.957031 C 2.039062 15.175781 2.292969 15.359375 2.425781 15.359375 C 2.652344 15.359375 2.652344 15.347656 2.398438 14.96875 L 2.148438 14.5625 L 2.386719 14.332031 C 2.6875 14.042969 2.710938 13.664062 2.449219 13.304688 C 2.292969 13.085938 2.160156 13.050781 1.429688 13.050781 L 0.601562 13.050781 Z M 1.933594 13.398438 C 2.207031 13.546875 2.230469 14.03125 1.96875 14.136719 C 1.859375 14.171875 1.621094 14.207031 1.429688 14.207031 C 1.105469 14.207031 1.078125 14.183594 1.078125 13.742188 C 1.078125 13.328125 1.105469 13.28125 1.390625 13.28125 C 1.558594 13.28125 1.800781 13.339844 1.933594 13.398438 Z M 1.933594 13.398438 "/>
<path style=" stroke:none;fill-rule:nonzero;fill:rgb(0%,0%,0%);fill-opacity:1;" d="M 3.359375 14.207031 L 3.359375 15.359375 L 4.273438 15.359375 C 4.945312 15.359375 5.171875 15.324219 5.136719 15.210938 C 5.101562 15.128906 4.8125 15.058594 4.390625 15.035156 C 3.71875 15.003906 3.707031 14.992188 3.742188 14.691406 C 3.78125 14.402344 3.828125 14.378906 4.355469 14.34375 C 4.667969 14.320312 4.921875 14.261719 4.921875 14.207031 C 4.921875 14.148438 4.667969 14.089844 4.355469 14.066406 C 3.828125 14.03125 3.78125 14.007812 3.742188 13.707031 C 3.707031 13.398438 3.71875 13.398438 4.367188 13.398438 C 4.882812 13.398438 5.039062 13.363281 5.039062 13.222656 C 5.039062 13.085938 4.871094 13.050781 4.199219 13.050781 L 3.359375 13.050781 Z M 3.359375 14.207031 "/>
<path style=" stroke:none;fill-rule:nonzero;fill:rgb(0%,0%,0%);fill-opacity:1;" d="M 5.761719 14.207031 C 5.761719 15.277344 5.773438 15.359375 6 15.359375 C 6.203125 15.359375 6.226562 15.269531 6.265625 14.550781 L 6.300781 13.742188 L 6.9375 14.550781 C 7.34375 15.046875 7.667969 15.359375 7.8125 15.359375 C 8.015625 15.359375 8.039062 15.269531 8.039062 14.207031 C 8.039062 13.269531 8.003906 13.050781 7.859375 13.050781 C 7.726562 13.050781 7.679688 13.246094 7.65625 13.882812 L 7.621094 14.726562 L 6.925781 13.882812 C 6.492188 13.363281 6.144531 13.050781 6 13.050781 C 5.773438 13.050781 5.761719 13.132812 5.761719 14.207031 Z M 5.761719 14.207031 "/>
<path style=" stroke:none;fill-rule:nonzero;fill:rgb(0%,0%,0%);fill-opacity:1;" d="M 8.640625 13.152344 C 8.640625 13.222656 8.820312 13.28125 9.035156 13.304688 L 9.421875 13.339844 L 9.457031 14.34375 C 9.480469 15.128906 9.527344 15.359375 9.660156 15.359375 C 9.792969 15.359375 9.839844 15.128906 9.863281 14.34375 C 9.898438 13.339844 9.898438 13.339844 10.234375 13.304688 C 10.414062 13.28125 10.558594 13.210938 10.558594 13.152344 C 10.558594 13.097656 10.128906 13.050781 9.601562 13.050781 C 9.070312 13.050781 8.640625 13.097656 8.640625 13.152344 Z M 8.640625 13.152344 "/>
<path style=" stroke:none;fill-rule:nonzero;fill:rgb(0%,0%,0%);fill-opacity:1;" d="M 12.492188 14.136719 C 12.214844 14.726562 12 15.246094 12 15.289062 C 12 15.476562 12.347656 15.324219 12.527344 15.070312 C 12.695312 14.828125 12.816406 14.78125 13.261719 14.78125 C 13.726562 14.78125 13.824219 14.828125 13.945312 15.070312 C 14.0625 15.324219 14.605469 15.511719 14.496094 15.257812 C 14.484375 15.210938 14.242188 14.691406 13.980469 14.101562 C 13.597656 13.234375 13.464844 13.050781 13.246094 13.050781 C 13.03125 13.050781 12.898438 13.246094 12.492188 14.136719 Z M 13.535156 14.113281 C 13.667969 14.414062 13.644531 14.4375 13.367188 14.503906 C 12.910156 14.621094 12.78125 14.414062 13.019531 13.972656 C 13.234375 13.582031 13.308594 13.605469 13.535156 14.113281 Z M 13.535156 14.113281 "/>
<path style=" stroke:none;fill-rule:nonzero;fill:rgb(0%,0%,0%);fill-opacity:1;" d="M 19.152344 14.042969 C 18.527344 15.429688 18.539062 15.359375 18.804688 15.359375 C 18.925781 15.359375 19.078125 15.246094 19.140625 15.09375 C 19.234375 14.875 19.355469 14.839844 19.859375 14.839844 C 20.363281 14.839844 20.484375 14.875 20.578125 15.09375 C 20.640625 15.246094 20.796875 15.359375 20.914062 15.359375 C 21.179688 15.359375 21.191406 15.429688 20.566406 14.042969 C 20.207031 13.234375 20.074219 13.050781 19.859375 13.050781 C 19.644531 13.050781 19.511719 13.234375 19.152344 14.042969 Z M 20.101562 13.996094 C 20.183594 14.207031 20.230469 14.414062 20.207031 14.460938 C 20.125 14.585938 19.585938 14.574219 19.5 14.4375 C 19.429688 14.332031 19.753906 13.628906 19.871094 13.628906 C 19.90625 13.628906 20.003906 13.800781 20.101562 13.996094 Z M 20.101562 13.996094 "/>
<path style=" stroke:none;fill-rule:nonzero;fill:rgb(0%,0%,0%);fill-opacity:1;" d="M 21.601562 14.207031 C 21.601562 15.277344 21.613281 15.359375 21.839844 15.359375 C 22.03125 15.359375 22.078125 15.277344 22.078125 14.957031 C 22.078125 14.632812 22.128906 14.550781 22.308594 14.550781 C 22.441406 14.550781 22.691406 14.738281 22.871094 14.957031 C 23.039062 15.175781 23.292969 15.359375 23.410156 15.359375 C 23.699219 15.359375 23.699219 15.3125 23.386719 14.910156 L 23.136719 14.574219 L 23.386719 14.332031 C 23.699219 14.03125 23.710938 13.5 23.425781 13.246094 C 23.269531 13.109375 22.980469 13.050781 22.402344 13.050781 L 21.601562 13.050781 Z M 22.96875 13.429688 C 23.101562 13.523438 23.171875 13.695312 23.136719 13.871094 C 23.101562 14.113281 23.027344 14.148438 22.597656 14.183594 L 22.078125 14.214844 L 22.078125 13.753906 C 22.078125 13.316406 22.105469 13.28125 22.414062 13.28125 C 22.609375 13.28125 22.847656 13.351562 22.96875 13.429688 Z M 22.96875 13.429688 "/>
</g>
</svg>
